/* XPM */
static char *_58c8c8cc1624bf9fe4ed031d719a1a6jmI6qBsZYryZLNUj[] = {
/* columns rows colors chars-per-pixel */
"32 32 196 2 ",
"   c None",
".  c #93721D",
"X  c #97761D",
"o  c #98771D",
"O  c #98781D",
"+  c #99791D",
"@  c #9A791D",
"#  c #9A7A1D",
"$  c #9B7A1D",
"%  c #9B7B1D",
"&  c #9C7B1D",
"*  c #9C7C1D",
"=  c #9D7C1D",
"-  c #9D7D1D",
";  c #9E7D1D",
":  c #9E7E1D",
">  c #9F7E1D",
",  c #9F7F1D",
"<  c #A07F1D",
"1  c #A0801D",
"2  c #A1801D",
"3  c #A2801D",
"4  c #A2811D",
"5  c #A2821D",
"6  c #A3821D",
"7  c #A3831D",
"8  c #A4831D",
"9  c #A4841D",
"0  c #A5841D",
"q  c #A5851D",
"w  c #A6851D",
"e  c #A7861D",
"r  c #A7871D",
"t  c #A8871D",
"y  c #A7881D",
"u  c #A9881D",
"i  c #AA891D",
"p  c #A88A1D",
"a  c #AB8A1D",
"s  c #AC8B1D",
"d  c #AC8C1D",
"f  c #AE8D1D",
"g  c #AE8E1D",
"h  c #AF8E1D",
"j  c #AF8F1D",
"k  c #B08F1D",
"l  c #AC911D",
"z  c #B1901D",
"x  c #B0911D",
"c  c #B2901D",
"v  c #B2911D",
"b  c #B3921D",
"n  c #B4921D",
"m  c #B4931D",
"M  c #B0961D",
"N  c #B1961D",
"B  c #B5941D",
"V  c #B6941D",
"C  c #B6951D",
"Z  c #B7951D",
"A  c #B6961D",
"S  c #B7961D",
"D  c #B8961D",
"F  c #B8971D",
"G  c #B9971D",
"H  c #B6981D",
"J  c #B9981D",
"K  c #B8991D",
"L  c #BA981D",
"P  c #BA991D",
"I  c #BB991D",
"U  c #BB9A1D",
"Y  c #BB9B1D",
"T  c #BC9A1D",
"R  c #BC9B1D",
"E  c #BD9B1D",
"W  c #BC9B1E",
"Q  c #BB9D1D",
"!  c #BC9D1D",
"~  c #BD9D1D",
"^  c #BE9D1D",
"/  c #BE9F1D",
"(  c #BD9E1E",
")  c #BFA11D",
"_  c #BFA21D",
"`  c #BFA91D",
"'  c #BFAB1D",
"]  c #BD9C20",
"[  c #BE9D20",
"{  c #BE9F22",
"}  c #BE9E23",
"|  c #BE9E29",
" . c #BEA33B",
".. c #BEA539",
"X. c #BFA13C",
"o. c #C09E1D",
"O. c #C09F1D",
"+. c #C19F1D",
"@. c #C3A11D",
"#. c #C0A21D",
"$. c #C0A31D",
"%. c #C3A21D",
"&. c #C4A21D",
"*. c #C5A31D",
"=. c #C3A41D",
"-. c #C3A61D",
";. c #C5A41D",
":. c #C7A61D",
">. c #C5A61F",
",. c #C6A71F",
"<. c #C8A61D",
"1. c #CAA71D",
"2. c #C2A91D",
"3. c #C1AA1D",
"4. c #C3AB1D",
"5. c #C4A81D",
"6. c #C5A91D",
"7. c #CAA81D",
"8. c #CAA91D",
"9. c #CBA91D",
"0. c #CAAA1D",
"q. c #CBAB1D",
"w. c #CBA91E",
"e. c #CCA91D",
"r. c #CCAB1D",
"t. c #CDAB1D",
"y. c #CEAB1D",
"u. c #CAAC1D",
"i. c #CCAC1D",
"p. c #C3B11D",
"a. c #C3B21F",
"s. c #C6B11D",
"d. c #C9B11D",
"f. c #CCB11D",
"g. c #CDB21D",
"h. c #CFB31D",
"j. c #CDB71F",
"k. c #CEB91D",
"l. c #CCBE1E",
"z. c #C4A520",
"x. c #C7A920",
"c. c #C6AA20",
"v. c #C5AF20",
"b. c #C0AA27",
"n. c #C4AB24",
"m. c #C6AA25",
"M. c #C5AB27",
"N. c #C9A926",
"B. c #C1A429",
"V. c #C3A62D",
"C. c #C5A72D",
"Z. c #C7AB2C",
"A. c #C5B520",
"S. c #C9B720",
"D. c #C7BA24",
"F. c #C3B22B",
"G. c #C7B42A",
"H. c #CCB229",
"J. c #CBB22C",
"K. c #CCB82B",
"L. c #D0BD20",
"P. c #C3A63B",
"I. c #C5AD3A",
"U. c #C4B532",
"Y. c #C9B730",
"T. c #CCB737",
"R. c #CCB930",
"E. c #C9B934",
"W. c #CBB935",
"Q. c #CCBA37",
"!. c #CABE35",
"~. c #C9B43A",
"^. c #CBB73A",
"/. c #CAB93C",
"(. c #CEC333",
"). c #C4B341",
"_. c #CBB745",
"`. c #C9B940",
"'. c #C9BD43",
"]. c #CCBE41",
"[. c #C4B549",
"{. c #C9B949",
"}. c #CABA4D",
"|. c #CABF4D",
" X c #C5B654",
".X c #C7B953",
"XX c #CABA54",
"oX c #C8B459",
"OX c #CAB65B",
"+X c #C8B15C",
"@X c #CEBD5A",
"#X c #CCC04A",
"$X c #CEC34D",
"%X c #D0C141",
"&X c #CCC551",
"*X c #CEC452",
/* pixels */
"                                                                ",
"                                                                ",
"                                                                ",
"                                                                ",
"                                                                ",
"                      z.V.I.~.K.h.g.u.                          ",
"                  ~.H.J._.XX}.E.S.d.u.w.=.                      ",
"                &X$XE.R.{. X[.U.A.' ) %.=.%.                    ",
"              Q.]./.Y.G.)..X|.!.a.4.@.^ L L E                   ",
"              x.m.m.A.F.'.*X$X/.b.$.w.=.L c C m                 ",
"            E ^ ^ ) ` D.(.%X@XOXP.[ y.y.%.c j k                 ",
"          G L G C H ' S.L.T.oX+XX.[ y.y.=.C s s s               ",
"          G L C j M p.k.g.M...P.| ] w.w.=.E s w a               ",
"          m C c a M s.h.i.z.B.C.[ L =.$.@.^ j 8 w               ",
"          a s a w l 3.i.i.w.N.Z.[ L +.@.@.^ s 5 w               ",
"          8 w t 5 y ^ =.<.<.6.x.^ C +.@.+.L a 5 w               ",
"          8 8 w 5 8 C +.@.=.=.6.^ G ^ +.E C w - w               ",
"          8 8 8 < < j L %.@.=.=.Q M L L C k < < w               ",
"          5 < 5 8 & 8 m G ^ ) 3.L k C G c t - < 8               ",
"            % & - < - w k m L ) L j c k s < & 8                 ",
"              % - < & - w a c H c a s t 5 & -                   ",
"              % & - - - - 5 y d a 9 8 - % & 8                   ",
"                o % < - & & - - - - % & & <                     ",
"                  o o % & - & & % - & - 5                       ",
"                      . o % - 8 5 5 5                           ",
"                                                                ",
"                                                                ",
"                                                                ",
"                                                                ",
"                                                                ",
"                                                                ",
"                                                                "
};
