/* XPM */
static char *_9514a6ddc2142b8b730a332e7dbb280A3A8RvbyFw1OjGdJ[] = {
/* columns rows colors chars-per-pixel */
"32 32 190 2 ",
"   c None",
".  c black",
"X  c #010101",
"o  c #020202",
"O  c #030202",
"+  c #050303",
"@  c #040401",
"#  c #060403",
"$  c #040404",
"%  c #050404",
"&  c #070504",
"*  c #060606",
"=  c #0B0908",
"-  c #0E0B0B",
";  c #1A1412",
":  c #1B1413",
">  c #231A18",
",  c #251B19",
"<  c #2D221F",
"1  c gray13",
"2  c #232424",
"3  c #252525",
"4  c gray15",
"5  c #272727",
"6  c #282828",
"7  c #282829",
"8  c gray16",
"9  c #2A2A2A",
"0  c gray17",
"q  c #2C2B2B",
"w  c #2D2B2B",
"e  c #2D2D2D",
"r  c #302320",
"t  c #372825",
"y  c #3B302E",
"u  c #373130",
"i  c #353535",
"p  c #44322D",
"a  c #433430",
"s  c #493631",
"d  c #4A3732",
"f  c #4C3833",
"g  c #4D3935",
"h  c #4F3B36",
"j  c #4B4511",
"k  c #6B631B",
"l  c #58423C",
"z  c #5A423C",
"x  c #5A423D",
"c  c #5B433D",
"v  c #5B433E",
"b  c #5B443F",
"n  c #77713C",
"m  c #5D4944",
"M  c gray35",
"N  c #58585A",
"B  c #595A5A",
"V  c #624C47",
"C  c #644F4B",
"Z  c #65514C",
"A  c #605454",
"S  c #705E5A",
"D  c #726E4E",
"F  c #74625E",
"G  c #4F6873",
"H  c #506974",
"J  c #506975",
"K  c #516A76",
"L  c #506A77",
"P  c #516B77",
"I  c #526B77",
"U  c #536C77",
"Y  c #516C78",
"T  c #526C78",
"R  c #536D79",
"E  c #546E7A",
"W  c #776763",
"Q  c #61767F",
"!  c #D64035",
"~  c #E94033",
"^  c #964442",
"/  c #81736F",
"(  c #887C79",
")  c #CF4A47",
"_  c #CD7471",
"`  c #EBDA37",
"'  c #FFED3A",
"]  c #8D807D",
"[  c #E5D64A",
"{  c #D6CB6B",
"}  c #EADF7A",
"|  c #115EB7",
" . c #627882",
".. c #647982",
"X. c #657A84",
"o. c #667B85",
"O. c #697E88",
"+. c #6B7F88",
"@. c #72858D",
"#. c #72858E",
"$. c #7E8E95",
"%. c #7D8E96",
"&. c #7F8F97",
"*. c #588CC7",
"=. c #6D9BCF",
"-. c #918684",
";. c #968D8B",
":. c #99908D",
">. c #809198",
",. c #83939B",
"<. c #9C9593",
"1. c #9E9694",
"2. c #A39D9B",
"3. c #A49E9C",
"4. c #8B9AA1",
"5. c #94A0A6",
"6. c #95A2A9",
"7. c #96A3AA",
"8. c #A5AEB3",
"9. c #A6AFB3",
"0. c #ADB8BD",
"q. c #AEB8BC",
"w. c #B5B3B3",
"e. c #B1B8BC",
"r. c gray75",
"t. c #D99792",
"y. c #E6918A",
"u. c #EDA7A1",
"i. c #F0E691",
"p. c #9DB8D8",
"a. c #B9BFC2",
"s. c #BDC3C5",
"d. c #C1C2C2",
"f. c #C3C4C4",
"g. c #C1C7CB",
"h. c #C9C9CA",
"j. c #CACACA",
"k. c gray81",
"l. c #DFC3C3",
"z. c #CACED1",
"x. c #CFD2D3",
"c. c gray82",
"v. c #D2D2D2",
"b. c #D3D4D6",
"n. c gray83",
"m. c gray84",
"M. c #D7D7D7",
"N. c #D6D9DA",
"B. c #D7DBDD",
"V. c #D8D8D9",
"C. c gray86",
"Z. c #D9DCDE",
"A. c #DADEDF",
"S. c #DBDEDF",
"D. c gainsboro",
"F. c #DFDFDF",
"G. c #E7C7C5",
"H. c #E2C9C9",
"J. c #E3E1D2",
"K. c #DCDFE1",
"L. c #DFDFE0",
"P. c #DFE0E0",
"I. c #DFE1E3",
"U. c #DDE2E3",
"Y. c gray88",
"T. c #E1E0E0",
"R. c #E1E1E1",
"E. c #E2E1E1",
"W. c #E1E2E3",
"Q. c #E4E3E3",
"!. c #E1E3E4",
"~. c #E1E4E5",
"^. c #E3E4E4",
"/. c #E2E4E5",
"(. c #E4E4E4",
"). c #E5E4E4",
"_. c #E5E5E4",
"`. c gray90",
"'. c #E5E7E7",
"]. c #E6E6E6",
"[. c gray91",
"{. c #E8E9E9",
"}. c #E8EBEB",
"|. c gray92",
" X c #ECECEC",
".X c gray93",
"XX c #ECEEEF",
"oX c #EFF1F1",
"OX c #F0F1F1",
"+X c #F2F2F3",
/* pixels */
"                                                                ",
"                                                                ",
"                                                                ",
"                                                                ",
"                                                                ",
"                                                                ",
"                                                                ",
"                                                                ",
"                                                                ",
"                                                                ",
"                                                                ",
"                                                                ",
"                                                                ",
"                                                                ",
"                                                                ",
"                                ! ~ u.oX=.|                     ",
"                                t.y.G.{.p.*.                    ",
"                        B.`. X}./.U.{.+X!.Z.U.Q.                ",
"                      `.+XK.a.4.#.X.7.XX$.O.,.q.!.`.            ",
"                  M.`.Z.7. .R L Y Y &./.X.Y K E $.B.{.M.        ",
"                c.`.g.+.L R E E Y Y $.K.X.Y Y E K #.Z.`.c.      ",
"          h.c.M.`.z.Q K R R L L Y K $.N.X.K Y K K K 5. XE.c.    ",
"    h.b.Z.D.J.(.`.x.9.9.8.8.9.9.9.9.s.F.e.9.9.9.9.9.a.E.`.H._   ",
"  { } i.J.K.K.F.F.Y.E.E.J.U.E.E.E.E.E.F.E.E.E.E.E.E.Y.F.F.H.)   ",
"  [ ' ` D N M M M M M M M M M M M M M M M M M M M M M M M A ^   ",
"  n k j + X X + + X X X X X X X X X X X X X X X X & X X X X e   ",
"  8 X X X % < d d , X X X X X X X X X X X X X = t h p ; X X 8   ",
"  e * X X > Z 1.:.m ; X X X X X X X X X X X X r F 3.] g - % 8   ",
"    8 1 1 a / d.r.W y 2 5 5 5 5 5 5 8 8 8 8 8 d -.f.w.Z u 8 i   ",
"            Z <.;.V                           c S 3.( c         ",
"              c c                               c b c           ",
"                                                                "
};
