/* XPM */
static char *_f573b51f5394f9df73f65a3c7c4fbd0Oqb5Vs97Uie0TBTV[] = {
/* columns rows colors chars-per-pixel */
"32 32 182 2 ",
"   c None",
".  c #010101",
"X  c #0C0502",
"o  c #0D0C0B",
"O  c #070709",
"+  c #130702",
"@  c #1A0A00",
"#  c #150B09",
"$  c #130907",
"%  c #0B111B",
"&  c #131313",
"*  c #1D1512",
"=  c #191918",
"-  c #1B1619",
";  c #060912",
":  c #250E0B",
">  c #25150D",
",  c #2B160B",
"<  c #321503",
"1  c #361A05",
"2  c #251912",
"3  c #251914",
"4  c #301A17",
"5  c #2C221D",
"6  c #31241D",
"7  c #0B152A",
"8  c #0D182A",
"9  c #1C1926",
"0  c #091731",
"q  c #0C1C3C",
"w  c #131D33",
"e  c #252423",
"r  c #2C2C2C",
"t  c #2D2823",
"y  c #352A22",
"u  c #382E22",
"i  c #3D342E",
"p  c #3A3633",
"a  c #3C3C3B",
"s  c #36363A",
"d  c #532A02",
"f  c #5E3A0D",
"g  c #402912",
"h  c #572719",
"j  c #5B371B",
"k  c #703B1C",
"l  c #4D3829",
"z  c #453A37",
"x  c #593A35",
"c  c #4B2D2A",
"v  c #6D3C35",
"b  c #663D38",
"n  c #6B2B23",
"m  c #4D413B",
"M  c #544A3E",
"N  c #6E413C",
"B  c #0D1F41",
"V  c #041E56",
"C  c #0F244C",
"Z  c #0F2B5E",
"A  c #1E3258",
"S  c #352F43",
"D  c #373647",
"F  c #213456",
"G  c #34354E",
"H  c #0F2D6B",
"J  c #163062",
"K  c #15397C",
"L  c #233C6C",
"P  c #723F49",
"I  c #3A475D",
"U  c #3A4260",
"Y  c #374D74",
"T  c #4B4C4C",
"R  c #464645",
"E  c #574A46",
"W  c #5C5C5C",
"Q  c gray32",
"!  c #624844",
"~  c #6D4244",
"^  c #66564C",
"/  c #695B55",
"(  c #70685E",
")  c #445065",
"_  c #44597F",
"`  c #4B4D65",
"'  c #616262",
"]  c #6D6C6B",
"[  c #7E746D",
"{  c #6A6C72",
"}  c #747475",
"|  c #777878",
" . c #7B7976",
".. c #813E3F",
"X. c #953D33",
"o. c #88362C",
"O. c #8F4239",
"+. c #944339",
"@. c #A54A3F",
"#. c #8F4940",
"$. c #8D5C41",
"%. c #94574A",
"&. c #9D5F5D",
"*. c #A94F43",
"=. c #AC635A",
"-. c #BB685E",
";. c #94677E",
":. c #887472",
">. c #907B79",
",. c #AE6961",
"<. c #B16F67",
"1. c #B7766E",
"2. c #A27E7A",
"3. c #CA6F64",
"4. c #CE756A",
"5. c #C07779",
"6. c #D57367",
"7. c #E17E71",
"8. c #BE817A",
"9. c #D58578",
"0. c #CB847B",
"q. c #183D82",
"w. c #1F448A",
"e. c #1D4797",
"r. c #294C8D",
"t. c #39578A",
"y. c #2C539A",
"u. c #395993",
"i. c #2955A6",
"p. c #2A57AC",
"a. c #365FAA",
"s. c #305EB3",
"d. c #3863B1",
"f. c #43558E",
"g. c #4D5F94",
"h. c #665983",
"j. c #4C628A",
"k. c #456CB5",
"l. c #5078BF",
"z. c #486EB1",
"x. c #6D79B7",
"c. c #3969C1",
"v. c #4071C9",
"b. c #4876CB",
"n. c #4B7CD6",
"m. c #5584D8",
"M. c #5689E4",
"N. c #5F91E9",
"B. c #618EE1",
"V. c #6194EF",
"C. c #669AF9",
"Z. c #699FFD",
"A. c #7196E9",
"S. c #6BA1FF",
"D. c #898888",
"F. c #979898",
"G. c #A48480",
"H. c #B1928E",
"J. c #B98F91",
"K. c #A2A09E",
"L. c #B79CA2",
"P. c #ACACAC",
"I. c #A5A5A5",
"U. c #BBBCBC",
"Y. c #CD8C84",
"T. c #D38A81",
"R. c #C0938D",
"E. c #C99D97",
"W. c #E18D83",
"Q. c #E8968B",
"!. c #E8A198",
"~. c #DDABA5",
"^. c #E3B5AF",
"/. c #F1BDB7",
"(. c #ECB9B3",
"). c #ECC2BD",
"_. c #8EA9EC",
"`. c #C8B7CC",
"'. c #BFC0C0",
"]. c #DCDDDD",
"[. c #F2C9C4",
"{. c #E2E2E2",
/* pixels */
"                                                                ",
"                            . . . .                             ",
"                        . . . . . .                             ",
"                        . . : n ,                               ",
"                        @ # +.6.v                               ",
"                        P h 3.9.;.                              ",
"                h # % z.x...*.#.S q.f.                          ",
"              O.1.G.> & F D J.E.H.D 0 ~                         ",
"              1.[./.%.; u.N._.`.L.D q.h.=.                      ",
"            X.Y.[.^.b 7 a.C.S.z.8 C Z G N 4                     ",
"            @.!././ X p ) f.g.U R ' W W >.:.F.I.P.I.P.{.].      ",
"          X.4.9.1.> o ] ] t 5 r T Q T ] ' W ] W F.].].U.]       ",
"          ,.(.2.c O o / D.} | ' T Q a T R t u 5 m M / ( r       ",
"        O.~.[.).T.b T z E :.:.! ^ :.| | } l d j $.$.h f a       ",
"        o.=.1.0.9.R.D.! ,.Q.9.k d 6 = r a 2 1 N 9.W.%.d         ",
"              X.#.^ z : =.5.x 5 1 @ .                           ",
"                  < < > g.A.B.m.Y q                             ",
"                  9 S u.s.c.m.c.p.c.                            ",
"                  H n.Z.M.p.e.e.n.S.S.                          ",
"                  K V.Z.C.y.0 C i.M.S.M.                        ",
"                V e.N.Z.N.A   . C i.m.k.                        ",
"                V L t.b.r.      . C Y ] E                       ",
"                G { ] p 9         . z K./                       ",
"                s D.:.<           . - m U                       ",
"              C i.` z :           ; J k.b.r.                    ",
"              0 d.N.u..             8 t.u.w                     ",
"            . . 0 F q               . . . .                     ",
"            X 5 > X                 X 2 r o                     ",
"            * p , X                   * p &                     ",
"          X y t X                     + u &                     ",
"          O = &                       X 2 # .                   ",
"        & s r &                         @ 6 p l                 "
};
