/* XPM */
static char *_a5771f30b49413acbfa14917d21066789u7kYmnt8Fxs8pK[] = {
/* columns rows colors chars-per-pixel */
"32 32 7 1 ",
"  c #1E212A",
". c #272C40",
"X c #2F374D",
"o c #3C4963",
"O c #4E6077",
"+ c #63768B",
"@ c #7796A7",
/* pixels */
"@@@@@@@@@@+@+@@@@@@@@+++@@+@@@@@",
"++++++++++++++++++++++++++++++++",
"++++++++++++++++++++++++++++++++",
"OOOOOOOOOOOOOOOOOOOOOOOOOOOOOOOO",
"OOOOOOOOOOOOOOOOOOOOOOOOOOOOOOOO",
"................................",
"..@@++@+@+++++++++++++++++++O+O+",
".+oOOOOOXOOOOOOOOOOOOoOOOOOOOOOO",
".@OOOOOOoOOOOOOOooooooOOOOOOOOOO",
" @OOOOOOoOOOOOOOoOOO++@+++++o+oO",
" +OOOOOOoOOOOOOOoOOO@OOOOOOOOOXO",
" @OOOooooooooOOOoOOO@OOOOOOOOOXO",
" +OOOoOOOOOOXOOOXOOOoooXXXXXXXXO",
"  OOOXOOOOO                     ",
"+           ++@@@@++@+++++++++++",
"OOO  @@@++@@OOOOOOOOOoOOOOoOOOOo",
"OOO @OOOOoOOOOOOOOOOOoOOOOoOOOOO",
"OOO @OOOOoOOOOO+@++OOoOOOOoooooO",
"OOO +OOOOooooX@OOOXOOoOOOOOOOOoO",
"ooO @OoOOoOOOO@OOOXOOoooXOOOOOoo",
"O   +OOOOXOOOO+XooXOOOOOXOOOOOXO",
"                                ",
"  ooooooo  oooooooooooooooooooo ",
" oXXX.XXXX oXXXXX .........XX.XX",
" oXXX.XXXX oXXXXX.XXXXXXXX.XXXXX",
" oXXX..... o......XXXXXXXX......",
" oXXX.XXXX oXXX.XXXXXXXXXX.XXXXX",
" oXXX.XXXX oX.X.XXXXXXXXXX.XX.XX",
" o....XXXX  XXX XXX             ",
" oXXX.XXXX          XX X X      ",
"  XXXXX             XX X X      ",
"                                "
};
